<svg width="146" height="161" viewBox="0 0 146 161" fill="none" xmlns="http://www.w3.org/2000/svg">
<ellipse cx="29.4872" cy="33.3409" rx="29.4872" ry="33.3409" transform="matrix(0.47288 0.881127 -0.885556 0.464532 117.206 33.7341)" fill="#0FB0BD"/>
<ellipse cx="3.79538" cy="1.57269" rx="3.79538" ry="1.57269" transform="matrix(0.47288 0.881127 -0.885556 0.464532 71.9664 89.1134)" fill="#0FB0BD"/>
<ellipse cx="31.6809" cy="39.2784" rx="31.6809" ry="39.2784" transform="matrix(0.938843 0.344347 -0.351326 0.936253 59.7524 0)" fill="#EE7F16"/>
<ellipse cx="4.07774" cy="1.85275" rx="4.07774" ry="1.85275" transform="matrix(0.938843 0.344347 -0.351326 0.936253 60.6848 83.2244)" fill="#EE7F16"/>
<ellipse cx="29.7001" cy="33.1015" rx="29.7001" ry="33.1015" transform="matrix(0.92391 -0.382611 0.390113 0.920767 0 38.839)" fill="#F4A4B4"/>
<ellipse cx="3.82279" cy="1.56139" rx="3.82279" ry="1.56139" transform="matrix(0.92391 -0.382611 0.390113 0.920767 51.6648 88.4202)" fill="#F4A4B4"/>
<path d="M56.5432 89.6335C56.5432 90.9761 58.1299 91.806 58.3799 93.1668C58.6582 94.6816 59.2665 96.7416 60.1136 98.0589C61.1685 99.6993 61.5007 101.881 62.7228 103.393C63.9019 104.851 65.4049 107.475 66.0529 109.27C67.0052 111.909 67.5964 114.717 68.2844 117.441C68.7463 119.269 69.2686 121.121 69.5032 122.978C69.6447 124.098 69.2587 125.407 69.6748 126.478C70.5216 128.656 70.2193 131.583 70.6876 133.901C71.847 139.637 73.2281 144.861 73.2281 150.785" stroke="#686767" stroke-linecap="round"/>
<path d="M63.0319 88.7958C63.0319 91.2129 63.1342 93.4877 64.1133 95.6018C64.6419 96.7431 64.7481 98.1362 65.1261 99.3417C65.4479 100.368 66.066 102.064 66.1217 103.048C66.2996 106.192 66.8 109.548 67.6837 112.583C68.6895 116.038 68.2574 119.622 68.9196 123.196C69.329 125.406 69.2114 127.74 69.2114 130.036C69.2114 132.218 70.7563 134.102 70.7563 136.253C70.7563 138.155 70.3674 140.776 71.134 142.469C73.4141 147.504 77.5614 151.173 80.6437 155.811" stroke="#686767" stroke-linecap="round"/>
<path d="M72.2301 95.4974C72.2301 101.516 71.9164 107.541 71.9164 113.516C71.9164 117.264 70.4421 121.084 69.7378 124.841C69.259 127.395 69.7203 130.471 69.7203 133.073C69.7203 137.333 69.9149 141.183 72.6832 144.635C73.1801 145.255 73.9813 146.763 74.1124 147.525C74.2613 148.392 75.2013 147.804 75.5416 148.134C75.6637 148.252 75.3673 148.44 75.3673 148.607C75.3673 149.103 75.3673 149.599 75.3673 150.095C75.3673 152.078 75.3673 154.061 75.3673 156.045C75.3673 157.506 76.308 158.782 76.9359 160" stroke="#686767" stroke-linecap="round"/>
</svg>
