<svg width="1540" height="275" viewBox="0 0 1540 275" fill="none" xmlns="http://www.w3.org/2000/svg">
<path fill-rule="evenodd" clip-rule="evenodd" d="M0 0L65.9585 28.7958C131.917 57.5916 264.833 114.463 396.75 125.982C529.666 137.5 661.583 103.665 794.5 69.1099C926.417 34.555 1058.33 0 1191.25 5.75916C1323.17 11.5183 1456.08 57.5916 1522.04 80.6283L1588 103.665V275H1522.04C1456.08 275 1323.17 275 1191.25 275C1058.33 275 926.417 275 794.5 275C661.583 275 529.666 275 396.75 275C264.833 275 131.917 275 65.9585 275H0V0Z" fill="#0FB0BD"/>
</svg>
