<svg width="1541" height="246" viewBox="0 0 1541 246" fill="none" xmlns="http://www.w3.org/2000/svg">
<path fill-rule="evenodd" clip-rule="evenodd" d="M0 21.5082L53 26.8852C106 32.2623 212 43.0164 318 43.0164C424 43.0164 530 32.2623 636 21.5082C742 10.7541 847 0 953 0C1059 0 1165 10.7541 1271 32.2623C1377 53.7705 1483 86.0328 1536 101.492L1589 117.623V246H1536C1483 246 1377 246 1271 246C1165 246 1059 246 953 246C847 246 742 246 636 246C530 246 424 246 318 246C212 246 106 246 53 246H0V21.5082Z" fill="#F4A4B4"/>
</svg>
